<svg fill="currentColor" fill-rule="evenodd" height="1em" style="flex:none;line-height:1" viewBox="0 0 24 24" width="1em" xmlns="http://www.w3.org/2000/svg"><title>Augment</title><path d="M7.5 4C6.12 4 5 5.12 5 6.5v3.25c0 .97-.79 1.75-1.75 1.75a.75.75 0 000 1.5c.97 0 1.75.78 1.75 1.75v3.25c0 1.38 1.12 2.5 2.5 2.5h1a.75.75 0 000-1.5h-1a1 1 0 01-1-1v-3.25a3.24 3.24 0 00-1.17-2.5 3.24 3.24 0 001.17-2.5V6.5a1 1 0 011-1h1a.75.75 0 000-1.5h-1zm9 0a.75.75 0 000 1.5h1a1 1 0 011 1v3.25c0 .97.53 1.82 1.17 2.5a3.24 3.24 0 00-1.17 2.5v3.25a1 1 0 01-1 1h-1a.75.75 0 000 1.5h1c1.38 0 2.5-1.12 2.5-2.5v-3.25c0-.97.78-1.75 1.75-1.75a.75.75 0 000-1.5 1.75 1.75 0 01-1.75-1.75V6.5c0-1.38-1.12-2.5-2.5-2.5h-1zm-6.25 7a1.25 1.25 0 100 2.5 1.25 1.25 0 000-2.5zm3.5 0a1.25 1.25 0 100 2.5 1.25 1.25 0 000-2.5z"/></svg>
